<svg id="chat" xmlns="http://www.w3.org/2000/svg" width="39.283" height="39.283" viewBox="0 0 39.283 39.283">
  <g id="Сгруппировать_544" data-name="Сгруппировать 544" transform="translate(0 0)">
    <g id="Сгруппировать_543" data-name="Сгруппировать 543">
      <path id="Контур_483" data-name="Контур 483" d="M35.948,23.522a1.535,1.535,0,0,0-2.845,1.15l1.807,4.47-5.368-2.366a1.535,1.535,0,0,0-1.221-.007,14.8,14.8,0,0,1-5.841,1.18c-8.215,0-13.734-6.432-13.734-12.44,0-6.859,6.161-12.44,13.734-12.44S36.215,8.65,36.215,15.509a12.514,12.514,0,0,1-.137,1.758,1.534,1.534,0,1,0,3.035.453,15.485,15.485,0,0,0,.17-2.211A14.832,14.832,0,0,0,34.313,4.5,17.439,17.439,0,0,0,22.481,0,17.44,17.44,0,0,0,10.649,4.5a14.914,14.914,0,0,0-4.91,9.693A12.4,12.4,0,0,0,0,24.516a11.905,11.905,0,0,0,2.353,7.114L.112,37.174a1.534,1.534,0,0,0,2.042,1.979L8.616,36.3a14.6,14.6,0,0,0,5.118.911c.038,0,.076,0,.114-.006a14.524,14.524,0,0,0,7.22-1.957,13.21,13.21,0,0,0,4.642-4.52,17.658,17.658,0,0,0,3.188-.886l8.233,3.629A1.535,1.535,0,0,0,39.172,31.5ZM13.734,34.143c-.021,0-.041,0-.062,0a11.509,11.509,0,0,1-4.483-.917,1.534,1.534,0,0,0-1.221.007L4.374,34.82l1.159-2.868a1.535,1.535,0,0,0-.255-1.571,8.957,8.957,0,0,1-2.209-5.867,9.13,9.13,0,0,1,2.836-6.537,15.49,15.49,0,0,0,4.539,8.3A17.152,17.152,0,0,0,21.609,31,11.278,11.278,0,0,1,13.734,34.143Z" transform="translate(0 0)" fill="#141414"/>
      <ellipse id="Эллипс_4" data-name="Эллипс 4" cx="1.493" cy="1.628" rx="1.493" ry="1.628" transform="translate(20.999 13.942)" fill="#141414"/>
      <ellipse id="Эллипс_5" data-name="Эллипс 5" cx="1.493" cy="1.628" rx="1.493" ry="1.628" transform="translate(26.969 13.942)" fill="#141414"/>
      <ellipse id="Эллипс_6" data-name="Эллипс 6" cx="1.493" cy="1.628" rx="1.493" ry="1.628" transform="translate(14.756 13.942)" fill="#141414"/>
    </g>
  </g>
</svg>
