<svg xmlns="http://www.w3.org/2000/svg" width="29.977" height="30" viewBox="0 0 29.977 30">
  <g id="clapperboard" transform="translate(-0.198 -0.001)">
    <g id="Сгруппировать_510" data-name="Сгруппировать 510" transform="translate(1.456 17.064)">
      <g id="Сгруппировать_509" data-name="Сгруппировать 509">
        <path id="Контур_442" data-name="Контур 442" d="M20.949,298.483v9.7a3.183,3.183,0,0,0,3.122,3.234H46.546a3.182,3.182,0,0,0,3.122-3.234v-9.7Z" transform="translate(-20.949 -298.483)" fill="#fdc730"/>
      </g>
    </g>
    <g id="Сгруппировать_512" data-name="Сгруппировать 512" transform="translate(10.172 2.958)">
      <g id="Сгруппировать_511" data-name="Сгруппировать 511">
        <path id="Контур_443" data-name="Контур 443" d="M177.768,48.776l-4.841,1.149,4.056,5.968,5.243-1.193Z" transform="translate(-172.927 -48.776)" fill="#fdc730"/>
      </g>
    </g>
    <g id="Сгруппировать_514" data-name="Сгруппировать 514" transform="translate(4.109 4.427)">
      <g id="Сгруппировать_513" data-name="Сгруппировать 513">
        <path id="Контур_444" data-name="Контур 444" d="M69.92,72.99,64.7,74.227l4.013,5.912,5.251-1.194Z" transform="translate(-64.703 -72.99)" fill="#fdc730"/>
      </g>
    </g>
    <g id="Сгруппировать_516" data-name="Сгруппировать 516" transform="translate(22.386 0.001)">
      <g id="Сгруппировать_515" data-name="Сгруппировать 515" transform="translate(0 0)">
        <path id="Контур_445" data-name="Контур 445" d="M390.955,5.645l-1.1-4.176a1.954,1.954,0,0,0-2.32-1.42l-4.347,1.032,4.124,6.08,3.16-.719a.645.645,0,0,0,.41-.3A.652.652,0,0,0,390.955,5.645Z" transform="translate(-383.188 -0.001)" fill="#fdc730"/>
      </g>
    </g>
    <g id="Сгруппировать_518" data-name="Сгруппировать 518" transform="translate(16.09 1.401)">
      <g id="Сгруппировать_517" data-name="Сгруппировать 517">
        <path id="Контур_446" data-name="Контур 446" d="M280.6,23.091l-5.189,1.232,4.466,5.937,4.84-1.1Z" transform="translate(-275.413 -23.091)" fill="#fdc730"/>
      </g>
    </g>
    <g id="Сгруппировать_520" data-name="Сгруппировать 520" transform="translate(5.657 11.167)">
      <g id="Сгруппировать_519" data-name="Сгруппировать 519">
        <path id="Контур_447" data-name="Контур 447" d="M96.384,191.838l-2.07,5.173h5.075l2.07-5.173Z" transform="translate(-94.314 -191.838)" fill="#fdc730"/>
      </g>
    </g>
    <g id="Сгруппировать_522" data-name="Сгруппировать 522" transform="translate(11.845 11.167)">
      <g id="Сгруппировать_521" data-name="Сгруппировать 521">
        <path id="Контур_448" data-name="Контур 448" d="M203.051,191.838l-2.07,5.173h5.075l2.07-5.173Z" transform="translate(-200.981 -191.838)" fill="#fdc730"/>
      </g>
    </g>
    <g id="Сгруппировать_524" data-name="Сгруппировать 524" transform="translate(24.274 11.167)">
      <g id="Сгруппировать_523" data-name="Сгруппировать 523">
        <path id="Контур_449" data-name="Контур 449" d="M419.568,191.838h-3.184l-2.07,5.175h5.9v-4.528A.645.645,0,0,0,419.568,191.838Z" transform="translate(-414.315 -191.838)" fill="#fdc730"/>
      </g>
    </g>
    <g id="Сгруппировать_526" data-name="Сгруппировать 526" transform="translate(18.032 11.167)">
      <g id="Сгруппировать_525" data-name="Сгруппировать 525">
        <path id="Контур_450" data-name="Контур 450" d="M309.717,191.838l-2.07,5.173h5.074l2.071-5.173Z" transform="translate(-307.647 -191.838)" fill="#fdc730"/>
      </g>
    </g>
    <g id="Сгруппировать_528" data-name="Сгруппировать 528" transform="translate(0.198 5.677)">
      <g id="Сгруппировать_527" data-name="Сгруппировать 527" transform="translate(0)">
        <path id="Контур_451" data-name="Контур 451" d="M2.764,98.675l-1.054.25a1.94,1.94,0,0,0-1.453,2.364l1.2,4.74v3.47H4.512l1.942-4.852.316-.071Z" transform="translate(-0.198 -98.675)" fill="#fdc730"/>
      </g>
    </g>
  </g>
</svg>
