<svg id="cms" xmlns="http://www.w3.org/2000/svg" width="30" height="30" viewBox="0 0 30 30">
  <path id="Контур_465" data-name="Контур 465" d="M109.458,421.758h-2.883L105.989,420H95.348l-.586,1.758H91.879a.879.879,0,1,0,0,1.758h17.578a.879.879,0,0,0,0-1.758Zm0,0" transform="translate(-85.668 -393.516)" fill="#fdc730"/>
  <path id="Контур_466" data-name="Контур 466" d="M391.879,90a.879.879,0,1,0,.879.879A.879.879,0,0,0,391.879,90Zm0,0" transform="translate(-368.09 -84.352)" fill="#fdc730"/>
  <path id="Контур_467" data-name="Контур 467" d="M27.3,0H2.637A2.64,2.64,0,0,0,0,2.637V17.578H5.332V14.942a.879.879,0,0,1,.879-.879H7.569a7.822,7.822,0,0,1,.312-.753l-.961-.961a.879.879,0,0,1,0-1.243L9.406,8.62a.879.879,0,0,1,1.243,0l.961.961a7.862,7.862,0,0,1,.753-.313V7.91a.879.879,0,0,1,.879-.879h3.516a.879.879,0,0,1,.879.879V9.268a7.886,7.886,0,0,1,.753.313l.961-.961a.879.879,0,0,1,1.243,0l2.486,2.486a.879.879,0,0,1,0,1.243l-.961.961a7.845,7.845,0,0,1,.312.753h1.358a.879.879,0,0,1,.879.879v2.637H30V2.637A2.691,2.691,0,0,0,27.305,0ZM23.789,8.789a2.637,2.637,0,1,1,2.637-2.637A2.64,2.64,0,0,1,23.789,8.789Zm0,0" fill="#fdc730"/>
  <path id="Контур_468" data-name="Контур 468" d="M211,242.637a2.62,2.62,0,0,0,.171.879H216.1a2.629,2.629,0,1,0-5.1-.879Zm0,0" transform="translate(-198.637 -224.866)" fill="#fdc730"/>
  <path id="Контур_469" data-name="Контур 469" d="M122.979,156.372a.879.879,0,0,1-.851.659H121v1.758h3.631a4.4,4.4,0,1,1,8.558,0h3.631v-1.758h-1.128a.879.879,0,0,1-.851-.659,6.041,6.041,0,0,0-.651-1.566.879.879,0,0,1,.135-1.068l.8-.8-1.243-1.243-.8.8a.875.875,0,0,1-1.069.135,6.042,6.042,0,0,0-1.566-.651.879.879,0,0,1-.659-.851V150h-1.758v1.128a.879.879,0,0,1-.659.851,6.041,6.041,0,0,0-1.566.651.876.876,0,0,1-1.069-.135l-.8-.8-1.243,1.243.8.8a.879.879,0,0,1,.135,1.068,6.042,6.042,0,0,0-.651,1.566Zm0,0" transform="translate(-113.91 -140.359)" fill="#fdc730"/>
  <path id="Контур_470" data-name="Контур 470" d="M0,330.879a2.64,2.64,0,0,0,2.637,2.637H27.3a2.691,2.691,0,0,0,2.7-2.637V330H0Zm0,0" transform="translate(0 -309.191)" fill="#fdc730"/>
</svg>
