<svg xmlns="http://www.w3.org/2000/svg" width="36.752" height="30" viewBox="0 0 36.752 30">
  <g id="college-graduation" transform="translate(0 -36.648)">
    <g id="Layer_5_59_" transform="translate(0 36.648)">
      <g id="Сгруппировать_531" data-name="Сгруппировать 531" transform="translate(0 0)">
        <path id="Контур_472" data-name="Контур 472" d="M63.9,209.007a4.868,4.868,0,0,1-4.735,0l-10.72-6.471s-.968-.584-.968.739v6.461c0,3.4,6.292,7.073,14.055,7.073s14.055-3.669,14.055-7.073V202.91c0-1.061-.688-.543-.688-.543Z" transform="translate(-43.161 -186.809)" fill="#fdc730"/>
        <path id="Контур_473" data-name="Контур 473" d="M36.136,47.047a1,1,0,0,0,0-1.84L19.868,37.027a3.123,3.123,0,0,0-2.984,0L.615,45.207a1,1,0,0,0,0,1.84L16.884,57.078a3.123,3.123,0,0,0,2.984,0" transform="translate(0 -36.648)" fill="#fdc730"/>
        <path id="Контур_474" data-name="Контур 474" d="M358.473,196.942V186.056s.008-.516-.3-.345a8.894,8.894,0,0,0-1.059.656.914.914,0,0,0-.19.69v9.885a.29.29,0,0,1-.178.241,1.881,1.881,0,1,0,1.9,0A.28.28,0,0,1,358.473,196.942Z" transform="translate(-322.994 -171.752)" fill="#fdc730"/>
      </g>
    </g>
  </g>
</svg>
