<svg xmlns="http://www.w3.org/2000/svg" width="32.5" height="30" viewBox="0 0 32.5 30">
  <g id="download-to-storage-drive" transform="translate(0 -18.27)">
    <g id="Сгруппировать_491" data-name="Сгруппировать 491" transform="translate(0 18.27)">
      <path id="Контур_431" data-name="Контур 431" d="M31.953,311.167a1.829,1.829,0,0,0-1.328-.534H21.562l-2.656,2.6a3.835,3.835,0,0,1-5.312,0l-2.637-2.6H1.875a1.831,1.831,0,0,0-1.328.534,1.746,1.746,0,0,0-.547,1.3v6.106a1.746,1.746,0,0,0,.547,1.3,1.83,1.83,0,0,0,1.328.534h28.75a1.829,1.829,0,0,0,1.328-.534,1.746,1.746,0,0,0,.547-1.3v-6.106A1.745,1.745,0,0,0,31.953,311.167ZM24.629,317.6a1.247,1.247,0,0,1-1.758,0,1.179,1.179,0,0,1,0-1.717,1.246,1.246,0,0,1,1.758,0,1.179,1.179,0,0,1,0,1.717Zm5,0a1.247,1.247,0,0,1-1.758,0,1.179,1.179,0,0,1,0-1.717,1.245,1.245,0,0,1,1.758,0,1.178,1.178,0,0,1,0,1.717Z" transform="translate(0 -290.403)" fill="#fdc730"/>
      <path id="Контур_432" data-name="Контур 432" d="M100.339,38.671a1.278,1.278,0,0,0,1.783,0L111,30.121a1.074,1.074,0,0,0,.277-1.336,1.186,1.186,0,0,0-1.169-.744h-5.071V19.491a1.154,1.154,0,0,0-.376-.859,1.242,1.242,0,0,0-.891-.363H98.694a1.242,1.242,0,0,0-.891.363,1.153,1.153,0,0,0-.376.859v8.549H92.355a1.186,1.186,0,0,0-1.169.744,1.074,1.074,0,0,0,.277,1.336Z" transform="translate(-84.98 -18.27)" fill="#fdc730"/>
    </g>
  </g>
</svg>
