<svg id="Сгруппировать_564" data-name="Сгруппировать 564" xmlns="http://www.w3.org/2000/svg" width="47.121" height="47.084" viewBox="0 0 47.121 47.084">
  <path id="Контур_61" data-name="Контур 61" d="M415.755,822.806c.109.5.2,1,.274,1.511a.787.787,0,0,0,.777.674.866.866,0,0,0,.112-.01.783.783,0,0,0,.67-.884v0h0c-.077-.543-.174-1.088-.289-1.615a.786.786,0,0,0-1.536.331Z" transform="translate(-370.705 -803.929)" fill="#fff"/>
  <path id="Контур_62" data-name="Контур 62" d="M401.447,819.206a.793.793,0,0,0,.528-.2c.376-.341.769-.675,1.172-.991a.788.788,0,0,0-.971-1.242h0c-.426.339-.849.694-1.257,1.06a.785.785,0,0,0,.528,1.367Z" transform="translate(-393.168 -811.768)" fill="#fff"/>
  <path id="Контур_63" data-name="Контур 63" d="M398.471,824.4a.7.7,0,0,0,.159.017.784.784,0,0,0,.769-.627c.1-.5.227-.99.366-1.493a.784.784,0,1,0-1.511-.423h0c-.149.528-.284,1.065-.393,1.6a.784.784,0,0,0,.6.931Z" transform="translate(-397.363 -804.779)" fill="#fff"/>
  <path id="Контур_64" data-name="Контур 64" d="M402.988,817.912a.782.782,0,0,0,.393-.109c.441-.254.893-.5,1.349-.724a.786.786,0,1,0-.687-1.414h0c-.488.241-.976.5-1.446.777a.784.784,0,0,0,.393,1.464Z" transform="translate(-390.869 -813.285)" fill="#fff"/>
  <path id="Контур_65" data-name="Контур 65" d="M400.175,820.768a.789.789,0,0,0,.637-.323c.3-.416.615-.822.941-1.212a.786.786,0,1,0-1.192-1.026l-.015.017h0c-.351.426-.69.849-1.011,1.3a.785.785,0,0,0,.172,1.1h0A.772.772,0,0,0,400.175,820.768Z" transform="translate(-395.07 -809.789)" fill="#fff"/>
  <path id="Контур_66" data-name="Контур 66" d="M398.9,822.462a.766.766,0,0,0,.316.067.793.793,0,0,0,.719-.47c.2-.465.431-.928.672-1.381a.787.787,0,0,0-1.391-.737c-.256.485-.5.983-.717,1.481a.783.783,0,0,0,.4,1.035Z" transform="translate(-396.49 -807.422)" fill="#fff"/>
  <path id="Контур_67" data-name="Контур 67" d="M415.211,820.933a.787.787,0,0,0,1.329-.839c-.281-.46-.6-.916-.923-1.359a.786.786,0,1,0-1.307.874l.042.057C414.653,820.077,414.942,820.5,415.211,820.933Z" transform="translate(-373.042 -809.114)" fill="#fff"/>
  <path id="Контур_68" data-name="Контур 68" d="M414.272,819.411a.786.786,0,0,0,1.2-1.011c-.022-.025-.047-.05-.072-.075l-.012-.01c-.378-.393-.776-.774-1.185-1.132a.785.785,0,0,0-1.048,1.17c.383.344.754.7,1.108,1.063Z" transform="translate(-374.947 -811.202)" fill="#fff"/>
  <path id="Контур_69" data-name="Контур 69" d="M399.568,827.266c-.1-.493-.194-1-.266-1.508a.785.785,0,0,0-1.556.2v.02c.08.545.174,1.088.284,1.618a.784.784,0,0,0,.767.62.749.749,0,0,0,.164-.015.789.789,0,0,0,.6-.934h0Z" transform="translate(-397.514 -799.114)" fill="#fff"/>
  <path id="Контур_70" data-name="Контур 70" d="M411.758,817.333c.443.254.881.528,1.3.809a.786.786,0,0,0,.879-1.3h0c-.453-.3-.921-.595-1.4-.864a.787.787,0,1,0-.826,1.339l.042.022Z" transform="translate(-377.259 -812.88)" fill="#fff"/>
  <path id="Контур_71" data-name="Контур 71" d="M415.219,821.157c.207.463.4.938.58,1.416a.785.785,0,1,0,1.486-.508l-.015-.037c-.189-.513-.4-1.021-.62-1.518a.786.786,0,0,0-1.434.645Z" transform="translate(-371.597 -806.641)" fill="#fff"/>
  <path id="Контур_72" data-name="Контур 72" d="M408.4,816.26c.5.05,1.013.119,1.518.207a.785.785,0,0,0,.284-1.543h-.025c-.54-.092-1.088-.167-1.628-.221a.785.785,0,0,0-.157,1.556Z" transform="translate(-382.607 -814.6)" fill="#fff"/>
  <path id="Контур_73" data-name="Контур 73" d="M406.64,816.339a.489.489,0,0,0,.085,0c.51-.055,1.021-.092,1.528-.109a.783.783,0,0,0,.759-.809v0h0a.8.8,0,0,0-.814-.757c-.54.02-1.093.06-1.638.117a.787.787,0,1,0,.035,1.573l.045,0Z" transform="translate(-385.53 -814.661)" fill="#fff"/>
  <path id="Контур_74" data-name="Контур 74" d="M410.12,816.616c.488.157.973.331,1.446.52a.786.786,0,0,0,.615-1.446h0l-.03-.012c-.508-.2-1.028-.393-1.551-.56a.786.786,0,0,0-.48,1.494Z" transform="translate(-379.833 -814.02)" fill="#fff"/>
  <path id="Контур_75" data-name="Контур 75" d="M404.734,816.939a.818.818,0,0,0,.246-.037c.48-.159.976-.3,1.471-.426a.785.785,0,0,0-.383-1.523h0c-.533.134-1.063.284-1.578.458a.784.784,0,0,0,.244,1.531Z" transform="translate(-388.276 -814.263)" fill="#fff"/>
  <path id="Контур_76" data-name="Контур 76" d="M399.219,825.51q0-.75.05-1.489a.784.784,0,0,0-.729-.836h0a.776.776,0,0,0-.836.709v.022c-.035.525-.052,1.06-.052,1.568v.067a.764.764,0,0,0,.767.762h.017A.806.806,0,0,0,399.219,825.51Z" transform="translate(-397.651 -801.972)" fill="#fff"/>
  <path id="Контур_77" data-name="Контур 77" d="M411.1,832.547c-.485.157-.988.3-1.474.423a.786.786,0,0,0,.344,1.533L410,834.5h.01c.525-.132,1.058-.284,1.581-.453a.786.786,0,1,0-.423-1.513l-.062.02Z" transform="translate(-380.729 -788.093)" fill="#fff"/>
  <path id="Контур_78" data-name="Контур 78" d="M413.93,830.786q-.571.515-1.18.991a.787.787,0,1,0,.926,1.272l.042-.032c.426-.336.849-.692,1.257-1.055a.786.786,0,0,0-1.048-1.17Z" transform="translate(-375.649 -790.908)" fill="#fff"/>
  <path id="Контур_79" data-name="Контур 79" d="M412.612,831.822c-.441.256-.894.5-1.352.722a.787.787,0,0,0,.69,1.416c.49-.236.978-.5,1.449-.774a.785.785,0,0,0-.784-1.359Z" transform="translate(-378.046 -789.243)" fill="#fff"/>
  <path id="Контур_80" data-name="Контур 80" d="M414.945,829.512c-.3.408-.615.816-.943,1.209a.786.786,0,0,0,1.187,1.031l.017-.022c.353-.423.694-.856,1.01-1.294a.786.786,0,0,0-1.247-.956l-.022.032Z" transform="translate(-373.589 -793.051)" fill="#fff"/>
  <path id="Контур_81" data-name="Контур 81" d="M416.767,823.764a.784.784,0,0,0-.784.784v.095c0,.51-.017,1.028-.052,1.533a.786.786,0,0,0,.729.839h.055a.784.784,0,0,0,.784-.732c.035-.54.055-1.09.055-1.64v-.095A.785.785,0,0,0,416.767,823.764Z" transform="translate(-370.433 -801.106)" fill="#fff"/>
  <path id="Контур_82" data-name="Контур 82" d="M416.927,825.72a.785.785,0,0,0-.928.607c-.1.5-.229.991-.368,1.493a.782.782,0,0,0,.538.968.727.727,0,0,0,.219.032.784.784,0,0,0,.754-.565c.152-.53.284-1.065.393-1.6a.785.785,0,0,0-.6-.934h0Z" transform="translate(-370.923 -798.218)" fill="#fff"/>
  <path id="Контур_83" data-name="Контур 83" d="M416.685,827.591a.783.783,0,0,0-1.036.4v0c-.207.46-.433.926-.675,1.379a.782.782,0,0,0,.324,1.061v0a.758.758,0,0,0,.368.09.781.781,0,0,0,.694-.416c.259-.485.5-.983.722-1.479a.784.784,0,0,0-.4-1.035Z" transform="translate(-371.991 -795.509)" fill="#fff"/>
  <path id="Контур_84" data-name="Контур 84" d="M400.5,829.03a.785.785,0,0,0-1.329.836h0c.284.46.6.918.921,1.359a.785.785,0,1,0,1.282-.906l-.012-.02c-.3-.411-.59-.839-.861-1.272Z" transform="translate(-395.571 -793.811)" fill="#fff"/>
  <path id="Контур_85" data-name="Контур 85" d="M404.22,832.342c-.441-.254-.879-.528-1.3-.814a.786.786,0,0,0-.879,1.3c.453.306.923.6,1.394.871a.787.787,0,0,0,.8-1.356h-.01Z" transform="translate(-391.633 -789.743)" fill="#fff"/>
  <path id="Контур_86" data-name="Контур 86" d="M401.578,830.406a.787.787,0,1,0-1.133,1.093h0c.381.393.779.776,1.185,1.14a.785.785,0,1,0,1.05-1.167C402.3,831.131,401.934,830.772,401.578,830.406Z" transform="translate(-393.817 -791.571)" fill="#fff"/>
  <path id="Контур_87" data-name="Контур 87" d="M400.3,828.88c-.209-.465-.4-.943-.578-1.414a.785.785,0,1,0-1.474.54h0c.187.51.393,1.02.617,1.521a.786.786,0,1,0,1.434-.642Z" transform="translate(-396.825 -796.362)" fill="#fff"/>
  <path id="Контур_88" data-name="Контур 88" d="M409.424,832.9c-.508.055-1.021.09-1.528.107a.786.786,0,0,0,.025,1.571h.027c.545-.02,1.1-.057,1.64-.115a.785.785,0,0,0-.164-1.556Z" transform="translate(-383.545 -787.496)" fill="#fff"/>
  <path id="Контур_89" data-name="Контур 89" d="M407.66,833.037c-.5-.052-1.013-.122-1.518-.209a.786.786,0,1,0-.269,1.548c.543.092,1.088.169,1.628.224h.08a.787.787,0,0,0,.08-1.571Z" transform="translate(-386.378 -787.625)" fill="#fff"/>
  <path id="Контур_90" data-name="Контур 90" d="M405.912,832.875c-.485-.157-.971-.331-1.444-.523a.785.785,0,1,0-.61,1.446l.022.01c.508.2,1.028.393,1.548.565a.786.786,0,1,0,.483-1.5Z" transform="translate(-389.123 -788.409)" fill="#fff"/>
  <path id="Контур_489" data-name="Контур 489" d="M408.932,827.864l9.357,5.916V821.7Z" transform="translate(-380.852 -804.18)" fill="#fff"/>
  <path id="Контур_490" data-name="Контур 490" d="M401.541,821.7V833.78l9.357-5.916Z" transform="translate(-391.859 -804.18)" fill="#fff"/>
  <path id="Контур_491" data-name="Контур 491" d="M427.531,820.286H403.245a1.712,1.712,0,0,0-1.683,1.476l13.825,9.108,13.827-9.108A1.711,1.711,0,0,0,427.531,820.286Z" transform="translate(-391.827 -806.285)" fill="#fff"/>
  <path id="Контур_492" data-name="Контур 492" d="M418.317,824.6l-2.454,1.615a.86.86,0,0,1-.478.145.846.846,0,0,1-.475-.145l-2.457-1.618-10.89,6.89a1.711,1.711,0,0,0,1.68,1.464h24.286a1.713,1.713,0,0,0,1.68-1.464Z" transform="translate(-391.826 -799.867)" fill="#fff"/>
</svg>
