<svg xmlns="http://www.w3.org/2000/svg" width="30" height="30" viewBox="0 0 30 30">
  <path id="film" d="M30,15A15,15,0,1,0,15,30H30V27.5H23.281A15,15,0,0,0,30,15ZM22.347,25.113a3.75,3.75,0,1,1,.829-5.238A3.75,3.75,0,0,1,22.347,25.113ZM22.163,8.73a3.75,3.75,0,1,1-2.408,4.725A3.75,3.75,0,0,1,22.163,8.73ZM15,2.5a3.75,3.75,0,1,1-3.75,3.75A3.75,3.75,0,0,1,15,2.5ZM3.112,11.137a3.75,3.75,0,1,1,2.408,4.725,3.751,3.751,0,0,1-2.408-4.725Zm9.779,13.146a3.75,3.75,0,1,1-.829-5.237,3.75,3.75,0,0,1,.829,5.237ZM13.75,15A1.25,1.25,0,1,1,15,16.25,1.25,1.25,0,0,1,13.75,15Zm0,0" fill="#fdc730"/>
</svg>
