<svg xmlns="http://www.w3.org/2000/svg" width="45.291" height="30" viewBox="0 0 45.291 30">
  <g id="games" transform="translate(0 -9.052)">
    <path id="Контур_475" data-name="Контур 475" d="M41.241,14.358c-5.982-9.828-14.994-2.991-14.994-2.991a4.671,4.671,0,0,1-2.394.807l-2.414,0a4.64,4.64,0,0,1-2.394-.8s-9.012-6.839-15,2.989S.48,34.885.48,34.885C.9,37.5,2.294,39.253,4.92,39.034s8.3-7.056,8.3-7.056a3.24,3.24,0,0,1,2.184-1.024l14.471,0a3.235,3.235,0,0,1,2.183,1.024s5.686,6.837,8.309,7.056,4.018-1.53,4.438-4.149C44.809,34.883,47.224,24.184,41.241,14.358Zm-24.034,8H14.1v2.991a2.892,2.892,0,0,1-1.674.489,2.022,2.022,0,0,1-1.475-.547V22.358H8.025A2.356,2.356,0,0,1,7.561,21a3.125,3.125,0,0,1,.4-1.785h3.1v-3.1a3.373,3.373,0,0,1,1.557-.316,4.1,4.1,0,0,1,1.592.374l-.013,3.044h2.931a2.918,2.918,0,0,1,.554,1.451A3.665,3.665,0,0,1,17.207,22.357ZM31.44,25.766A2.456,2.456,0,1,1,33.9,23.31,2.452,2.452,0,0,1,31.44,25.766Zm0-6.757A2.456,2.456,0,1,1,33.9,16.554,2.452,2.452,0,0,1,31.44,19.009Zm6.116,3.627a2.456,2.456,0,1,1,2.457-2.456A2.452,2.452,0,0,1,37.557,22.636Z" transform="translate(0)" fill="#fdc730"/>
  </g>
</svg>
