<svg xmlns="http://www.w3.org/2000/svg" width="244.795" height="34.917" viewBox="0 0 244.795 34.917">
  <g id="Group_266" data-name="Group 266" transform="translate(-78.861 -441)">
    <g id="Group_262" data-name="Group 262" transform="translate(200.838 441.015)">
      <g id="Group_259" data-name="Group 259">
        <g id="Group_252" data-name="Group 252" transform="translate(94.588 0.043)">
          <g id="Group_251" data-name="Group 251">
            <g id="Symbol_29_0_Layer0_0_FILL" data-name="Symbol 29 0 Layer0 0 FILL">
              <path id="Path_188" data-name="Path 188" d="M1471.244,3457.876a1.825,1.825,0,0,0,.586-1.367,1.9,1.9,0,0,0-.586-1.389,1.86,1.86,0,0,0-1.367-.564h-20.419a5.921,5.921,0,0,0-4.079,1.736.1.1,0,0,1-.044.043,5.888,5.888,0,0,0-1.714,4.231,5.827,5.827,0,0,0,1.736,4.231l.022.022a5.741,5.741,0,0,0,4.1,1.757l16.361-.021a1.9,1.9,0,0,1,1.432.586l.022.021a2.1,2.1,0,0,1,.651,1.5,2.025,2.025,0,0,1-.651,1.476,2.106,2.106,0,0,1-1.237.629h-20.484a1.926,1.926,0,0,0-1.953,1.953,1.86,1.86,0,0,0,.564,1.367,1.9,1.9,0,0,0,1.389.586h20.658a1.207,1.207,0,0,0,.239-.022,5.831,5.831,0,0,0,3.58-1.758,5.708,5.708,0,0,0,1.8-4.231,5.78,5.78,0,0,0-1.8-4.253l.043.022a5.711,5.711,0,0,0-4.253-1.779l-16.318.022a2.072,2.072,0,0,1-1.389-.608l-.022-.022a2.058,2.058,0,0,1-.586-1.476,2.151,2.151,0,0,1,.564-1.454.266.266,0,0,0,.065-.065,2.21,2.21,0,0,1,1.41-.586h20.311A1.828,1.828,0,0,0,1471.244,3457.876Z" transform="translate(-1443.621 -3454.556)" fill="#fff"/>
            </g>
          </g>
        </g>
        <g id="Group_254" data-name="Group 254" transform="translate(64.144)">
          <g id="Group_253" data-name="Group 253">
            <g id="Symbol_29_0_Layer0_1_FILL" data-name="Symbol 29 0 Layer0 1 FILL">
              <path id="Path_189" data-name="Path 189" d="M1268.482,3457.588a1.826,1.826,0,0,0,.586-1.367,1.9,1.9,0,0,0-.586-1.389,1.86,1.86,0,0,0-1.367-.564h-24.433a1.928,1.928,0,0,0-1.953,1.953,1.859,1.859,0,0,0,.564,1.367,1.9,1.9,0,0,0,1.389.586h10.22v14.256a1.86,1.86,0,0,0,.564,1.367,1.9,1.9,0,0,0,1.389.586,2,2,0,0,0,1.953-1.953v-14.256h10.307A1.827,1.827,0,0,0,1268.482,3457.588Z" transform="translate(-1240.728 -3454.268)" fill="#fff"/>
            </g>
          </g>
        </g>
        <g id="Group_256" data-name="Group 256" transform="translate(32.701 0.065)">
          <g id="Group_255" data-name="Group 255">
            <g id="Symbol_29_0_Layer0_2_FILL" data-name="Symbol 29 0 Layer0 2 FILL">
              <path id="Path_190" data-name="Path 190" d="M1033.136,3454.7a1.927,1.927,0,0,0-1.953,1.953v16.166a1.86,1.86,0,0,0,.564,1.367,1.9,1.9,0,0,0,1.389.585h24.412a2,2,0,0,0,1.953-1.952,1.9,1.9,0,0,0-.586-1.389,1.86,1.86,0,0,0-1.367-.564h-22.459v-4.3h14.17a2,2,0,0,0,1.953-1.953,1.894,1.894,0,0,0-.586-1.389,1.859,1.859,0,0,0-1.367-.564h-14.17v-4.058h22.459a2,2,0,0,0,1.953-1.953,1.9,1.9,0,0,0-.586-1.389,1.861,1.861,0,0,0-1.367-.564Z" transform="translate(-1031.183 -3454.702)" fill="#fff"/>
            </g>
          </g>
        </g>
        <g id="Group_258" data-name="Group 258" transform="translate(0 0.029)">
          <g id="Group_257" data-name="Group 257">
            <g id="Symbol_29_0_Layer0_3_FILL" data-name="Symbol 29 0 Layer0 3 FILL">
              <path id="Path_191" data-name="Path 191" d="M816.288,3454.8a1.961,1.961,0,0,0-1.345-.326,2,2,0,0,0-1.215.673,1.905,1.905,0,0,0-.477,1.281v16.166a1.86,1.86,0,0,0,.564,1.367,1.9,1.9,0,0,0,1.389.586,2,2,0,0,0,1.953-1.953v-12.52l21.33,14.147a1.87,1.87,0,0,0,1.345.3,1.783,1.783,0,0,0,1.193-.651,1.844,1.844,0,0,0,.5-1.28v-16.166a1.9,1.9,0,0,0-.586-1.389,1.86,1.86,0,0,0-1.367-.564,1.927,1.927,0,0,0-1.953,1.953v12.521Z" transform="translate(-813.25 -3454.461)" fill="#fff"/>
            </g>
          </g>
        </g>
      </g>
      <g id="Group_261" data-name="Group 261" transform="translate(0.008 24.465)">
        <g id="Group_260" data-name="Group 260">
          <g id="Layer2_16_MEMBER_1_MEMBER_0_FILL" data-name="Layer2 16 MEMBER 1 MEMBER 0 FILL">
            <path id="Path_192" data-name="Path 192" d="M888.534,3625.927a3.874,3.874,0,0,0,.447-1.872,3.814,3.814,0,0,0-.447-1.872,3.306,3.306,0,0,0-1.292-1.292,3.747,3.747,0,0,0-1.839-.447,3.877,3.877,0,0,0-1.872.447,3.34,3.34,0,0,0-1.276,1.292,3.817,3.817,0,0,0-.447,1.872,3.877,3.877,0,0,0,.447,1.872,3.369,3.369,0,0,0,1.276,1.276,3.767,3.767,0,0,0,1.872.464,3.675,3.675,0,0,0,1.856-.464,3.367,3.367,0,0,0,1.276-1.276M885.4,3621.6a2.291,2.291,0,0,1,1.193.315,2.19,2.19,0,0,1,.828.878,2.955,2.955,0,0,1,0,2.518,2.19,2.19,0,0,1-.828.878,2.536,2.536,0,0,1-2.386,0,2.189,2.189,0,0,1-.828-.878,2.807,2.807,0,0,1,0-2.518,2.19,2.19,0,0,1,.828-.878,2.29,2.29,0,0,1,1.193-.315m-32.223.58a3.305,3.305,0,0,0-1.292-1.292,3.747,3.747,0,0,0-1.839-.447,3.877,3.877,0,0,0-1.872.447,3.34,3.34,0,0,0-1.276,1.292,3.816,3.816,0,0,0-.447,1.872,3.876,3.876,0,0,0,.447,1.872,3.369,3.369,0,0,0,1.276,1.276,3.767,3.767,0,0,0,1.872.464,3.675,3.675,0,0,0,1.856-.464,3.367,3.367,0,0,0,1.276-1.276,3.874,3.874,0,0,0,.447-1.872,3.814,3.814,0,0,0-.447-1.872m-3.131-.58a2.291,2.291,0,0,1,1.193.315,2.189,2.189,0,0,1,.828.878,2.955,2.955,0,0,1,0,2.518,2.189,2.189,0,0,1-.828.878,2.536,2.536,0,0,1-2.386,0,2.188,2.188,0,0,1-.828-.878,2.807,2.807,0,0,1,0-2.518,2.189,2.189,0,0,1,.828-.878,2.29,2.29,0,0,1,1.193-.315m10.537-.464a.622.622,0,0,0-.4-.53,2.372,2.372,0,0,0-1.077-.2,3.006,3.006,0,0,0-1.226.248,2.81,2.81,0,0,0-.977.729v-.249a.571.571,0,0,0-.646-.646.58.58,0,0,0-.646.646v5.832a.581.581,0,0,0,.646.646.676.676,0,0,0,.5-.166.7.7,0,0,0,.149-.48v-3.81a1.372,1.372,0,0,1,.58-1.16,2.5,2.5,0,0,1,1.524-.43,5.779,5.779,0,0,1,.845.083.745.745,0,0,0,.2.033.5.5,0,0,0,.514-.414.431.431,0,0,0,.017-.133m1.541-3.529a.664.664,0,0,0-.166.464v8.913a.6.6,0,0,0,.166.448.651.651,0,0,0,.48.183.623.623,0,0,0,.63-.63v-2l.646-.58,2.485,3.065a.566.566,0,0,0,.464.232.636.636,0,0,0,.414-.149.6.6,0,0,0,.249-.48.517.517,0,0,0-.149-.381l-2.535-3.115,2.4-2.137a.551.551,0,0,0,.2-.447.543.543,0,0,0-.166-.4.52.52,0,0,0-.431-.215.561.561,0,0,0-.414.166l-3.164,2.833v-5.3a.628.628,0,0,0-.182-.464.574.574,0,0,0-.447-.182.649.649,0,0,0-.48.182m28.76,0a.649.649,0,0,0-.182.48v7.107a3.087,3.087,0,0,0,.248,1.259,2.08,2.08,0,0,0,.7.862,1.836,1.836,0,0,0,1.011.3h.033a1.038,1.038,0,0,0,.63-.183.554.554,0,0,0,.249-.464.728.728,0,0,0-.166-.481.507.507,0,0,0-.414-.182h-.331a.534.534,0,0,1-.464-.315,1.511,1.511,0,0,1-.182-.8v-7.107a.65.65,0,0,0-.182-.48.628.628,0,0,0-.464-.182.649.649,0,0,0-.48.182m-14.148-.3a5.188,5.188,0,0,0-1.856.315,3.063,3.063,0,0,0-1.309.945,2.2,2.2,0,0,0-.481,1.425,2.512,2.512,0,0,0,.928,1.988,4.608,4.608,0,0,0,2.551.944,2.957,2.957,0,0,1,1.74.646,1.618,1.618,0,0,1,.58,1.259,1.41,1.41,0,0,1-.679,1.243,2.947,2.947,0,0,1-1.657.447,3.363,3.363,0,0,1-1.524-.348,1.978,1.978,0,0,1-.928-.862.753.753,0,0,0-.282-.331.658.658,0,0,0-.4-.133.433.433,0,0,0-.132.016.759.759,0,0,0-.4.2.508.508,0,0,0-.132.348.761.761,0,0,0,.066.265,3,3,0,0,0,1.425,1.491,4.665,4.665,0,0,0,2.3.58,4.9,4.9,0,0,0,1.806-.331,3.079,3.079,0,0,0,1.342-1.011,2.545,2.545,0,0,0,.514-1.607,2.708,2.708,0,0,0-.861-2.088,4.088,4.088,0,0,0-2.419-.927,3.721,3.721,0,0,1-1.955-.613,1.4,1.4,0,0,1-.547-1.127,1.243,1.243,0,0,1,.613-1.126,2.921,2.921,0,0,1,1.591-.381,2.594,2.594,0,0,1,1.342.315,2.357,2.357,0,0,1,.878.895.761.761,0,0,0,.265.265.7.7,0,0,0,.365.1.614.614,0,0,0,.348-.1.553.553,0,0,0,.248-.464.853.853,0,0,0-.149-.464,3.9,3.9,0,0,0-1.309-1.309,3.572,3.572,0,0,0-1.889-.464m-46.752,4.8a2.887,2.887,0,0,0-1.11-1.243,3.357,3.357,0,0,0-1.74-.431,3.713,3.713,0,0,0-1.822.447,3.256,3.256,0,0,0-1.242,1.292,3.873,3.873,0,0,0-.447,1.872,3.662,3.662,0,0,0,.48,1.872,3.28,3.28,0,0,0,1.325,1.276,3.9,3.9,0,0,0,1.905.464,4.076,4.076,0,0,0,1.259-.216,3.205,3.205,0,0,0,1.093-.58.448.448,0,0,0,.215-.381.582.582,0,0,0-.232-.447.575.575,0,0,0-.4-.133.711.711,0,0,0-.431.133,2.281,2.281,0,0,1-.7.365,2.654,2.654,0,0,1-.812.133,2.581,2.581,0,0,1-1.673-.547,2.339,2.339,0,0,1-.828-1.474h4.954a.583.583,0,0,0,.431-.166.563.563,0,0,0,.166-.414,4.021,4.021,0,0,0-.4-1.822m-1.458-.033a2.242,2.242,0,0,1,.663,1.392H824.85a2.27,2.27,0,0,1,.746-1.392,2.233,2.233,0,0,1,1.541-.53,1.882,1.882,0,0,1,1.392.53m6.71-1.176a.6.6,0,0,0-.447-.165H833.7v-1.872a.629.629,0,0,0-.182-.464.621.621,0,0,0-.48-.2.6.6,0,0,0-.464.2.628.628,0,0,0-.182.464v1.872h-.6a.6.6,0,0,0-.447.165.529.529,0,0,0-.166.414.49.49,0,0,0,.166.381.6.6,0,0,0,.447.166h.6v3.214a2.783,2.783,0,0,0,.3,1.292,2.278,2.278,0,0,0,.828.911,2.174,2.174,0,0,0,1.176.332h.232a.818.818,0,0,0,.547-.183.581.581,0,0,0,.215-.464.728.728,0,0,0-.166-.481.52.52,0,0,0-.4-.182h-.431a.879.879,0,0,1-.712-.348,1.35,1.35,0,0,1-.282-.878v-3.214h1.093a.6.6,0,0,0,.447-.166.471.471,0,0,0,.182-.381.506.506,0,0,0-.182-.414m6.146-.281a.712.712,0,0,0-.828,0,.694.694,0,0,0-.232.365l-1.342,4.49-1.408-4.39a1.026,1.026,0,0,0-.265-.464.575.575,0,0,0-.4-.133.483.483,0,0,0-.547.547,1.379,1.379,0,0,0,.05.365l1.922,5.782a.672.672,0,0,0,.249.315.7.7,0,0,0,.381.116.65.65,0,0,0,.381-.116.671.671,0,0,0,.248-.315l1.342-4.738,1.276,4.738a.575.575,0,0,0,.232.315.678.678,0,0,0,.4.116.7.7,0,0,0,.381-.116.708.708,0,0,0,.232-.315l1.922-5.782a1.109,1.109,0,0,0,.066-.381.576.576,0,0,0-.133-.4.564.564,0,0,0-.414-.133q-.5,0-.679.6l-1.441,4.473-1.16-4.572a.7.7,0,0,0-.232-.365m-21.024-3a.621.621,0,0,0-.2.48v7.14l-5.682-7.571a.625.625,0,0,0-.232-.165.521.521,0,0,0-.282-.083.621.621,0,0,0-.48.2.65.65,0,0,0-.182.48v8.83a.65.65,0,0,0,.182.481.679.679,0,0,0,1.16-.481v-7.124l5.682,7.571a.552.552,0,0,0,.232.182.936.936,0,0,0,.3.05.6.6,0,0,0,.464-.2.621.621,0,0,0,.2-.481v-8.83a.621.621,0,0,0-.2-.48.6.6,0,0,0-.464-.2.674.674,0,0,0-.5.2m115.538,4.258a.706.706,0,0,0-.166-.431,2.82,2.82,0,0,0-1.06-.746,4.167,4.167,0,0,0-1.524-.265,3.927,3.927,0,0,0-1.309.215,2.261,2.261,0,0,0-.994.663,1.611,1.611,0,0,0-.364,1.077q0,1.59,2.5,2.054a4.1,4.1,0,0,1,1.359.464.774.774,0,0,1,.414.663.748.748,0,0,1-.414.663,2.262,2.262,0,0,1-1.16.248,2.784,2.784,0,0,1-1.044-.2,1.931,1.931,0,0,1-.746-.481.736.736,0,0,0-.5-.232.8.8,0,0,0-.464.182.628.628,0,0,0-.249.514.6.6,0,0,0,.166.414,3.426,3.426,0,0,0,1.226.713,5.172,5.172,0,0,0,1.673.265,3.669,3.669,0,0,0,1.507-.282,2.245,2.245,0,0,0,.961-.762,1.931,1.931,0,0,0,.331-1.093,1.668,1.668,0,0,0-.6-1.325,4.641,4.641,0,0,0-2.021-.779,6.714,6.714,0,0,1-1.044-.3,1.014,1.014,0,0,1-.5-.331.668.668,0,0,1-.133-.431.615.615,0,0,1,.381-.563,1.968,1.968,0,0,1,.977-.216,2.633,2.633,0,0,1,.895.133,1.908,1.908,0,0,1,.7.414.868.868,0,0,0,.613.249.644.644,0,0,0,.365-.1.523.523,0,0,0,.215-.4m-35.139-1.408a.686.686,0,0,0-.48.182.65.65,0,0,0-.182.48v3.678a1.449,1.449,0,0,1-.265.845,1.679,1.679,0,0,1-.7.6,2.164,2.164,0,0,1-1.011.232,2.048,2.048,0,0,1-1.491-.547,2.139,2.139,0,0,1-.564-1.607v-3.2a.621.621,0,0,0-.2-.48.65.65,0,0,0-.481-.182.686.686,0,0,0-.48.182.65.65,0,0,0-.182.48v3.2a3.9,3.9,0,0,0,.4,1.823,2.766,2.766,0,0,0,1.127,1.126,3.331,3.331,0,0,0,1.624.4,3.266,3.266,0,0,0,1.226-.232,2.8,2.8,0,0,0,.994-.646v.149a.629.629,0,0,0,.182.464.654.654,0,0,0,.48.2.621.621,0,0,0,.48-.2.628.628,0,0,0,.182-.464v-5.815a.626.626,0,0,0-.663-.662m4.622.265v-1.872a.628.628,0,0,0-.182-.464.621.621,0,0,0-.48-.2.6.6,0,0,0-.464.2.628.628,0,0,0-.182.464v1.872h-.6a.6.6,0,0,0-.448.165.53.53,0,0,0-.166.414.491.491,0,0,0,.166.381.6.6,0,0,0,.448.166h.6v3.214a2.783,2.783,0,0,0,.3,1.292,2.277,2.277,0,0,0,.828.911,2.175,2.175,0,0,0,1.176.332h.232a.818.818,0,0,0,.547-.183.581.581,0,0,0,.216-.464.727.727,0,0,0-.166-.481.52.52,0,0,0-.4-.182h-.431a.878.878,0,0,1-.712-.348,1.349,1.349,0,0,1-.282-.878v-3.214h1.093a.6.6,0,0,0,.447-.166.471.471,0,0,0,.182-.381.506.506,0,0,0-.182-.414.6.6,0,0,0-.447-.165h-1.093m16.368.414v5.815a.628.628,0,0,0,.182.464.655.655,0,0,0,.481.2.621.621,0,0,0,.48-.2.629.629,0,0,0,.182-.464v-3.678a1.464,1.464,0,0,1,.249-.845,1.932,1.932,0,0,1,.712-.613,2.259,2.259,0,0,1,.994-.215,1.926,1.926,0,0,1,2.071,2.137v3.214a.6.6,0,0,0,.2.464.62.62,0,0,0,.48.2.679.679,0,0,0,.663-.663v-3.214a3.669,3.669,0,0,0-.414-1.806,2.741,2.741,0,0,0-1.127-1.143,3.351,3.351,0,0,0-1.607-.381,3.5,3.5,0,0,0-1.226.215,2.926,2.926,0,0,0-.994.646v-.133a.673.673,0,0,0-.182-.5.687.687,0,0,0-.48-.166.727.727,0,0,0-.481.166.672.672,0,0,0-.182.5m-11.945-.663a.687.687,0,0,0-.481.166.672.672,0,0,0-.182.5v5.8a.628.628,0,0,0,.182.464.679.679,0,0,0,.961,0,.629.629,0,0,0,.182-.464v-5.8a.673.673,0,0,0-.182-.5.687.687,0,0,0-.48-.166m8.2.4a3.748,3.748,0,0,0-1.839-.447,3.877,3.877,0,0,0-1.872.447,3.34,3.34,0,0,0-1.276,1.292,3.816,3.816,0,0,0-.447,1.872,3.876,3.876,0,0,0,.447,1.872,3.369,3.369,0,0,0,1.276,1.276,3.767,3.767,0,0,0,1.872.464,3.675,3.675,0,0,0,1.856-.464,3.368,3.368,0,0,0,1.276-1.276,3.873,3.873,0,0,0,.447-1.872,3.813,3.813,0,0,0-.447-1.872,3.305,3.305,0,0,0-1.292-1.292m-1.839.713a2.29,2.29,0,0,1,1.193.315,2.189,2.189,0,0,1,.828.878,2.955,2.955,0,0,1,0,2.518,2.189,2.189,0,0,1-.828.878,2.535,2.535,0,0,1-2.385,0,2.189,2.189,0,0,1-.828-.878,2.808,2.808,0,0,1,0-2.518,2.19,2.19,0,0,1,.828-.878,2.29,2.29,0,0,1,1.193-.315m-6.362-4.009a.84.84,0,0,0-.613.265.813.813,0,0,0-.249.6.833.833,0,0,0,.249.613.87.87,0,0,0,.613.249.877.877,0,0,0,.861-.862.909.909,0,0,0-.861-.861Z" transform="translate(-813.303 -3617.312)" fill="#fff"/>
          </g>
        </g>
      </g>
    </g>
    <g id="Group_264" data-name="Group 264" transform="translate(78.861 441)">
      <g id="Group_263" data-name="Group 263">
        <g id="Layer2_0_FILL" data-name="Layer2 0 FILL">
          <path id="Path_193" data-name="Path 193" d="M110.517,3471.469a3.03,3.03,0,0,0-2.307.675l-14,11.254a2.964,2.964,0,0,0-1.146,2.1,3.008,3.008,0,0,0,.675,2.307,3.16,3.16,0,0,0,1.114.879,3.071,3.071,0,0,0,1.334.3,3.018,3.018,0,0,0,1.962-.69l14-11.254a3.106,3.106,0,0,0,.471-4.411,3.017,3.017,0,0,0-2.1-1.161m-71.494.078a3.016,3.016,0,0,0-1.962.691L23.139,3483.4a3.02,3.02,0,0,0-1.162,2.1,3.059,3.059,0,0,0,.691,2.307,3.126,3.126,0,0,0,4.41.487l11.945-9.59,11.991,9.59a3.138,3.138,0,1,0,3.924-4.9l-13.954-11.159a2.976,2.976,0,0,0-1.962-.691m2.025-16.685a3.154,3.154,0,0,0-3.94,0L1.573,3483.382a3.164,3.164,0,0,0-.471,4.426,2.964,2.964,0,0,0,2.1,1.146,3.007,3.007,0,0,0,2.307-.675l33.558-26.934,33.557,26.95a3.155,3.155,0,0,0,3.94,0l35.535-28.52a3.163,3.163,0,0,0,.471-4.426,2.965,2.965,0,0,0-2.1-1.146,3.009,3.009,0,0,0-2.307.675l-33.558,26.934-33.558-26.949m-22.225-.392a3.069,3.069,0,0,0-1.334-.3,3.014,3.014,0,0,0-1.962.691l-14,11.254a3.105,3.105,0,0,0-.471,4.41,3.021,3.021,0,0,0,2.1,1.162,3.033,3.033,0,0,0,2.307-.675l14-11.254a2.964,2.964,0,0,0,1.146-2.1,3.008,3.008,0,0,0-.675-2.307,3.148,3.148,0,0,0-1.114-.879m41.531-.283a3.139,3.139,0,0,0-1.617,5.572l13.954,11.16a2.975,2.975,0,0,0,1.962.69,3.015,3.015,0,0,0,1.962-.69l13.922-11.16a3.019,3.019,0,0,0,1.162-2.1,3.06,3.06,0,0,0-.691-2.307,3.126,3.126,0,0,0-4.41-.486l-11.945,9.59-11.991-9.59A3.031,3.031,0,0,0,60.353,3454.188Z" transform="translate(-0.347 -3454.167)" fill="#fff"/>
        </g>
      </g>
    </g>
  </g>
</svg>
