<svg xmlns="http://www.w3.org/2000/svg" width="30.136" height="30" viewBox="0 0 30.136 30">
  <g id="music-note" transform="translate(0 -0.8)">
    <g id="Сгруппировать_530" data-name="Сгруппировать 530" transform="translate(0 0.8)">
      <path id="Контур_471" data-name="Контур 471" d="M30.1,9.722V3.047a1.159,1.159,0,0,0-.034-.341,2.348,2.348,0,0,0-.647-1.294A1.961,1.961,0,0,0,28.025.8a.75.75,0,0,0-.272.034l-15.6,2.35a2.492,2.492,0,0,0-1.464.715,2.079,2.079,0,0,0-.613,1.5V23c-.068-.034-.1-.068-.136-.068a6.829,6.829,0,0,0-4.052-1.26,6.829,6.829,0,0,0-4.052,1.26A4.15,4.15,0,0,0,0,26.237a4.061,4.061,0,0,0,1.839,3.3A6.829,6.829,0,0,0,5.891,30.8a6.829,6.829,0,0,0,4.052-1.26,4.15,4.15,0,0,0,1.839-3.3V12.854L28.4,10.709v9.943c-.034-.034-.068-.034-.1-.068a7.146,7.146,0,0,0-8.1,0,4.15,4.15,0,0,0-1.839,3.3,4.061,4.061,0,0,0,1.839,3.3,7.146,7.146,0,0,0,8.1,0,4.15,4.15,0,0,0,1.839-3.3V9.824A.125.125,0,0,1,30.1,9.722Z" transform="translate(0 -0.8)" fill="#fdc730"/>
    </g>
  </g>
</svg>
