<svg id="paper-plane_1_" data-name="paper-plane (1)" xmlns="http://www.w3.org/2000/svg" width="31.304" height="30" viewBox="0 0 31.304 30">
  <path id="Контур_501" data-name="Контур 501" d="M8.75,17.612v6.04a.976.976,0,0,0,1.763.578l3.533-4.808Z" transform="translate(2.667 5.371)" fill="#fdc730"/>
  <path id="Контур_502" data-name="Контур 502" d="M30.893.181a.978.978,0,0,0-1.02-.07L.526,15.441a.979.979,0,0,0,.136,1.794L8.82,20.024,26.2,5.164,12.75,21.366l13.673,4.675a1,1,0,0,0,.316.052.977.977,0,0,0,.968-.834L31.294,1.123a.98.98,0,0,0-.4-.942Z" transform="translate(0 0)" fill="#fdc730"/>
</svg>
