<svg id="Сгруппировать_562" data-name="Сгруппировать 562" xmlns="http://www.w3.org/2000/svg" width="47.124" height="47.084" viewBox="0 0 47.124 47.084">
  <path id="Контур_61" data-name="Контур 61" d="M268.722,822.806c.107.5.2,1,.271,1.511a.791.791,0,0,0,.777.674.867.867,0,0,0,.115-.01.785.785,0,0,0,.67-.884v0h0c-.08-.543-.174-1.088-.289-1.615a.786.786,0,0,0-1.536.331Z" transform="translate(-223.669 -803.929)" fill="#fff"/>
  <path id="Контур_62" data-name="Контур 62" d="M254.414,819.206a.793.793,0,0,0,.528-.2c.373-.341.769-.675,1.17-.991a.787.787,0,1,0-.968-1.242h0c-.426.339-.849.694-1.257,1.06a.784.784,0,0,0,.528,1.367Z" transform="translate(-246.133 -811.768)" fill="#fff"/>
  <path id="Контур_63" data-name="Контур 63" d="M251.437,824.4a.722.722,0,0,0,.162.017.784.784,0,0,0,.769-.627c.1-.5.226-.99.366-1.493a.786.786,0,0,0-1.513-.423h0c-.147.528-.281,1.065-.393,1.6a.786.786,0,0,0,.6.931Z" transform="translate(-250.329 -804.779)" fill="#fff"/>
  <path id="Контур_64" data-name="Контур 64" d="M255.955,817.912a.788.788,0,0,0,.393-.109c.441-.254.894-.5,1.349-.724a.786.786,0,1,0-.687-1.414h0c-.488.241-.976.5-1.449.777a.785.785,0,0,0,.393,1.464Z" transform="translate(-243.833 -813.285)" fill="#fff"/>
  <path id="Контур_65" data-name="Контур 65" d="M253.142,820.768a.781.781,0,0,0,.635-.323c.3-.416.617-.822.943-1.212a.787.787,0,1,0-1.195-1.026l-.015.017h0c-.348.426-.687.849-1.008,1.3a.785.785,0,0,0,.172,1.1h0A.767.767,0,0,0,253.142,820.768Z" transform="translate(-248.035 -809.789)" fill="#fff"/>
  <path id="Контур_66" data-name="Контур 66" d="M251.866,822.462a.783.783,0,0,0,1.035-.4c.207-.465.433-.928.672-1.381a.786.786,0,0,0-1.389-.737c-.256.485-.5.983-.719,1.481a.784.784,0,0,0,.4,1.035Z" transform="translate(-249.456 -807.422)" fill="#fff"/>
  <path id="Контур_67" data-name="Контур 67" d="M268.178,820.933a.787.787,0,0,0,1.329-.839c-.284-.46-.6-.916-.926-1.359a.786.786,0,0,0-1.307.874l.042.057C267.618,820.077,267.909,820.5,268.178,820.933Z" transform="translate(-226.007 -809.114)" fill="#fff"/>
  <path id="Контур_68" data-name="Контур 68" d="M267.239,819.411a.786.786,0,0,0,1.2-1.011c-.022-.025-.047-.05-.072-.075l-.013-.01c-.378-.393-.777-.774-1.185-1.132a.785.785,0,1,0-1.048,1.17c.381.344.754.7,1.108,1.063Z" transform="translate(-227.911 -811.202)" fill="#fff"/>
  <path id="Контур_69" data-name="Контур 69" d="M252.535,827.266c-.1-.493-.194-1-.266-1.508a.785.785,0,0,0-1.556.2v.02c.077.545.174,1.088.281,1.618a.786.786,0,0,0,.767.62.757.757,0,0,0,.167-.015.789.789,0,0,0,.6-.934h0Z" transform="translate(-250.479 -799.114)" fill="#fff"/>
  <path id="Контур_70" data-name="Контур 70" d="M264.726,817.333c.441.254.879.528,1.3.809a.787.787,0,0,0,.881-1.3h0c-.456-.3-.923-.595-1.4-.864a.787.787,0,1,0-.826,1.339l.042.022Z" transform="translate(-230.224 -812.88)" fill="#fff"/>
  <path id="Контур_71" data-name="Контур 71" d="M268.186,821.157c.207.463.4.938.58,1.416a.785.785,0,1,0,1.486-.508l-.015-.037c-.189-.513-.4-1.021-.62-1.518a.786.786,0,0,0-1.434.645Z" transform="translate(-224.562 -806.641)" fill="#fff"/>
  <path id="Контур_72" data-name="Контур 72" d="M261.363,816.26c.505.05,1.016.119,1.521.207a.785.785,0,0,0,.281-1.543h-.022c-.54-.092-1.088-.167-1.628-.221a.785.785,0,0,0-.159,1.556Z" transform="translate(-235.571 -814.6)" fill="#fff"/>
  <path id="Контур_73" data-name="Контур 73" d="M259.608,816.339a.49.49,0,0,0,.085,0c.508-.055,1.021-.092,1.528-.109a.783.783,0,0,0,.759-.809v0h0a.8.8,0,0,0-.814-.757c-.543.02-1.093.06-1.64.117a.787.787,0,1,0,.035,1.573l.047,0Z" transform="translate(-238.496 -814.661)" fill="#fff"/>
  <path id="Контур_74" data-name="Контур 74" d="M263.088,816.616c.488.157.973.331,1.446.52a.786.786,0,0,0,.615-1.446h0l-.03-.012c-.508-.2-1.028-.393-1.551-.56a.786.786,0,0,0-.48,1.494Z" transform="translate(-232.798 -814.02)" fill="#fff"/>
  <path id="Контур_75" data-name="Контур 75" d="M257.7,816.939a.8.8,0,0,0,.244-.037c.483-.159.976-.3,1.474-.426a.785.785,0,0,0-.383-1.523h0c-.533.134-1.063.284-1.578.458a.784.784,0,0,0,.244,1.531Z" transform="translate(-241.241 -814.263)" fill="#fff"/>
  <path id="Контур_76" data-name="Контур 76" d="M252.188,825.51q0-.75.05-1.489a.786.786,0,0,0-.729-.836h0a.773.773,0,0,0-.834.709v.022c-.035.525-.055,1.06-.055,1.568v.067a.765.765,0,0,0,.769.762h.017A.806.806,0,0,0,252.188,825.51Z" transform="translate(-250.617 -801.972)" fill="#fff"/>
  <path id="Контур_77" data-name="Контур 77" d="M264.069,832.547c-.485.157-.991.3-1.474.423a.786.786,0,0,0,.344,1.533l.025-.005h.01c.525-.132,1.058-.284,1.581-.453a.786.786,0,1,0-.423-1.513l-.062.02Z" transform="translate(-233.694 -788.093)" fill="#fff"/>
  <path id="Контур_78" data-name="Контур 78" d="M266.9,830.786q-.571.515-1.18.991a.787.787,0,1,0,.926,1.272l.042-.032c.423-.336.849-.692,1.257-1.055a.786.786,0,0,0-1.048-1.17Z" transform="translate(-228.614 -790.908)" fill="#fff"/>
  <path id="Контур_79" data-name="Контур 79" d="M265.579,831.822c-.441.256-.894.5-1.352.722a.787.787,0,0,0,.69,1.416c.49-.236.976-.5,1.449-.774a.785.785,0,0,0-.784-1.359Z" transform="translate(-231.011 -789.243)" fill="#fff"/>
  <path id="Контур_80" data-name="Контур 80" d="M267.912,829.512c-.3.408-.617.816-.943,1.209a.785.785,0,0,0,1.185,1.031l.02-.022c.351-.423.692-.856,1.01-1.294a.786.786,0,0,0-1.247-.956l-.022.032Z" transform="translate(-226.553 -793.051)" fill="#fff"/>
  <path id="Контур_81" data-name="Контур 81" d="M269.734,823.764a.784.784,0,0,0-.784.784v.095c0,.51-.017,1.028-.052,1.533a.786.786,0,0,0,.729.839h.055a.784.784,0,0,0,.784-.732c.035-.54.055-1.09.055-1.64v-.095A.786.786,0,0,0,269.734,823.764Z" transform="translate(-223.397 -801.106)" fill="#fff"/>
  <path id="Контур_82" data-name="Контур 82" d="M269.894,825.72a.786.786,0,0,0-.928.607c-.1.5-.229.991-.368,1.493a.782.782,0,0,0,.538.968.716.716,0,0,0,.219.032.784.784,0,0,0,.754-.565c.152-.53.284-1.065.393-1.6a.785.785,0,0,0-.6-.934h0Z" transform="translate(-223.888 -798.218)" fill="#fff"/>
  <path id="Контур_83" data-name="Контур 83" d="M269.654,827.591a.786.786,0,0,0-1.038.4v0c-.207.46-.433.926-.675,1.379a.783.783,0,0,0,.326,1.061v0a.752.752,0,0,0,.368.09.781.781,0,0,0,.694-.416c.259-.485.5-.983.722-1.479a.784.784,0,0,0-.4-1.035Z" transform="translate(-224.957 -795.509)" fill="#fff"/>
  <path id="Контур_84" data-name="Контур 84" d="M253.465,829.03a.785.785,0,0,0-1.329.836h0c.281.46.6.918.921,1.359a.785.785,0,1,0,1.282-.906l-.015-.02c-.3-.411-.59-.839-.859-1.272Z" transform="translate(-248.536 -793.811)" fill="#fff"/>
  <path id="Контур_85" data-name="Контур 85" d="M257.185,832.342c-.438-.254-.876-.528-1.3-.814a.786.786,0,1,0-.879,1.3c.453.306.923.6,1.394.871a.786.786,0,1,0,.794-1.356h-.007Z" transform="translate(-244.598 -789.743)" fill="#fff"/>
  <path id="Контур_86" data-name="Контур 86" d="M254.545,830.406a.787.787,0,1,0-1.133,1.093h0c.381.393.779.776,1.185,1.14a.785.785,0,0,0,1.05-1.167C255.272,831.131,254.9,830.772,254.545,830.406Z" transform="translate(-246.781 -791.571)" fill="#fff"/>
  <path id="Контур_87" data-name="Контур 87" d="M253.273,828.88c-.209-.465-.4-.943-.578-1.414a.786.786,0,1,0-1.476.54h0c.189.51.393,1.02.62,1.521a.786.786,0,1,0,1.434-.642Z" transform="translate(-249.791 -796.362)" fill="#fff"/>
  <path id="Контур_88" data-name="Контур 88" d="M262.393,832.9c-.508.055-1.021.09-1.528.107a.785.785,0,1,0,.025,1.571h.027c.545-.02,1.1-.057,1.638-.115a.785.785,0,0,0-.162-1.556Z" transform="translate(-236.511 -787.496)" fill="#fff"/>
  <path id="Контур_89" data-name="Контур 89" d="M260.627,833.037c-.5-.052-1.013-.122-1.518-.209a.786.786,0,1,0-.269,1.548c.543.092,1.088.169,1.628.224h.08a.787.787,0,0,0,.077-1.571Z" transform="translate(-239.343 -787.625)" fill="#fff"/>
  <path id="Контур_90" data-name="Контур 90" d="M258.877,832.875c-.485-.157-.968-.331-1.441-.523a.785.785,0,1,0-.61,1.446l.022.01c.505.2,1.026.393,1.548.565a.786.786,0,1,0,.48-1.5Z" transform="translate(-242.088 -788.409)" fill="#fff"/>
  <path id="Shape" d="M265.315,833.553a9.906,9.906,0,0,1-2.989-5.623.837.837,0,0,1,.241-.707l1.9-1.894a.85.85,0,0,0,.117-1.048l-3.017-4.687a.851.851,0,0,0-1.1-.309l-4.846,2.283a.851.851,0,0,0-.465.841,25.284,25.284,0,0,0,21.3,21.295.85.85,0,0,0,.839-.466l2.283-4.846a.848.848,0,0,0-.306-1.1l-4.687-3.017a.851.851,0,0,0-1.048.119l-1.894,1.9a.853.853,0,0,1-.707.241,9.894,9.894,0,0,1-5.623-2.992Z" transform="translate(-243.862 -807.905)" fill="#fff"/>
  <path id="Shape-2" d="M267.786,829.774a.848.848,0,0,1-.849-.849,6.352,6.352,0,0,0-6.347-6.345.849.849,0,1,1,0-1.7h0a8.049,8.049,0,0,1,8.04,8.04.848.848,0,0,1-.844.851Z" transform="translate(-237.03 -805.396)" fill="#fff"/>
  <path id="Shape-3" d="M272.017,832.31a.85.85,0,0,1-.849-.849,10.592,10.592,0,0,0-10.579-10.579.849.849,0,1,1,0-1.7h0a12.286,12.286,0,0,1,12.271,12.271.85.85,0,0,1-.849.849Z" transform="translate(-237.03 -807.924)" fill="#fff"/>
</svg>
