<svg id="screenshot" xmlns="http://www.w3.org/2000/svg" width="30" height="30" viewBox="0 0 30 30">
  <path id="Контур_504" data-name="Контур 504" d="M29.629,12.871a1.2,1.2,0,0,0-.879-.371H25.957A11.3,11.3,0,0,0,17.5,4.043V1.25a1.2,1.2,0,0,0-.372-.879A1.2,1.2,0,0,0,16.25,0h-2.5a1.2,1.2,0,0,0-.879.371,1.2,1.2,0,0,0-.371.879V4.043A11.3,11.3,0,0,0,4.043,12.5H1.25a1.2,1.2,0,0,0-.879.371A1.2,1.2,0,0,0,0,13.75v2.5a1.2,1.2,0,0,0,.371.879,1.2,1.2,0,0,0,.879.371H4.043A11.3,11.3,0,0,0,12.5,25.957V28.75A1.267,1.267,0,0,0,13.75,30h2.5a1.268,1.268,0,0,0,1.25-1.25V25.957A11.3,11.3,0,0,0,25.957,17.5H28.75A1.267,1.267,0,0,0,30,16.25v-2.5A1.2,1.2,0,0,0,29.629,12.871Zm-9.258,4.258a1.2,1.2,0,0,0,.879.371h2.129A8.758,8.758,0,0,1,17.5,23.379V21.25A1.269,1.269,0,0,0,16.25,20h-2.5a1.268,1.268,0,0,0-1.25,1.25v2.129A8.758,8.758,0,0,1,6.621,17.5H8.75A1.268,1.268,0,0,0,10,16.25v-2.5A1.268,1.268,0,0,0,8.75,12.5H6.621A8.758,8.758,0,0,1,12.5,6.621V8.75A1.268,1.268,0,0,0,13.75,10h2.5A1.268,1.268,0,0,0,17.5,8.75V6.621A8.758,8.758,0,0,1,23.379,12.5H21.25A1.267,1.267,0,0,0,20,13.75v2.5A1.2,1.2,0,0,0,20.371,17.129Z" transform="translate(0 0)" fill="#fdc730"/>
</svg>
