<svg id="Сгруппировать_560" data-name="Сгруппировать 560" xmlns="http://www.w3.org/2000/svg" width="47.121" height="47.084" viewBox="0 0 47.121 47.084">
  <path id="Контур_15" data-name="Контур 15" d="M101.607,822.8c.107.5.2,1,.271,1.511a.787.787,0,0,0,.777.674c.037,0,.075,0,.112-.01a.787.787,0,0,0,.672-.884v0h0c-.08-.543-.177-1.088-.291-1.615a.784.784,0,0,0-.941-.59h0a.784.784,0,0,0-.592.921Z" transform="translate(-56.549 -803.927)" fill="#fff"/>
  <path id="Контур_16" data-name="Контур 16" d="M87.294,819.209a.784.784,0,0,0,.528-.2c.373-.339.769-.672,1.17-.991a.786.786,0,0,0,.142-1.105h0a.786.786,0,0,0-1.105-.142h0c-.426.339-.849.7-1.257,1.06a.784.784,0,0,0-.055,1.108h0a.789.789,0,0,0,.582.259Z" transform="translate(-79.013 -811.771)" fill="#fff"/>
  <path id="Контур_17" data-name="Контур 17" d="M84.32,824.373a.722.722,0,0,0,.162.017.784.784,0,0,0,.769-.627c.1-.5.227-.99.366-1.493a.783.783,0,0,0-.595-.936h0a.783.783,0,0,0-.918.518c-.147.528-.281,1.065-.393,1.6A.784.784,0,0,0,84.32,824.373Z" transform="translate(-83.212 -804.754)" fill="#fff"/>
  <path id="Контур_18" data-name="Контур 18" d="M88.838,817.908a.784.784,0,0,0,.393-.107c.438-.254.894-.5,1.349-.724a.781.781,0,0,0,.361-1.048h0a.784.784,0,0,0-1.048-.363h0c-.488.242-.976.5-1.449.777a.787.787,0,0,0-.281,1.075h0a.782.782,0,0,0,.675.388Z" transform="translate(-76.716 -813.283)" fill="#fff"/>
  <path id="Контур_19" data-name="Контур 19" d="M86.023,820.76a.782.782,0,0,0,.637-.323c.3-.413.617-.822.943-1.212a.787.787,0,0,0-1.21-1.008h0c-.348.426-.689.849-1.011,1.3a.789.789,0,0,0,.172,1.1l0,0h0A.778.778,0,0,0,86.023,820.76Z" transform="translate(-80.918 -809.788)" fill="#fff"/>
  <path id="Контур_20" data-name="Контур 20" d="M84.749,822.457a.779.779,0,0,0,.319.07.788.788,0,0,0,.717-.473c.207-.463.431-.926.672-1.379a.786.786,0,0,0-.326-1.063h0a.786.786,0,0,0-1.063.326h0c-.259.485-.5.983-.719,1.481a.783.783,0,0,0,.4,1.035Z" transform="translate(-82.339 -807.425)" fill="#fff"/>
  <path id="Контур_21" data-name="Контур 21" d="M101.062,820.93a.786.786,0,1,0,1.329-.839c-.284-.458-.6-.916-.926-1.356a.783.783,0,0,0-1.088-.219h0a.786.786,0,0,0-.219,1.09h0l.042.057C100.5,820.082,100.8,820.5,101.062,820.93Z" transform="translate(-58.891 -809.117)" fill="#fff"/>
  <path id="Контур_22" data-name="Контур 22" d="M100.114,819.409a.786.786,0,0,0,1.11.027l0,0a.781.781,0,0,0,.025-1.108v0l-.01-.01c-.381-.393-.777-.774-1.187-1.132a.785.785,0,0,0-1.045,1.172c.381.341.754.7,1.108,1.063Z" transform="translate(-60.788 -811.199)" fill="#fff"/>
  <path id="Контур_23" data-name="Контур 23" d="M85.421,827.284c-.107-.493-.2-1-.269-1.508a.785.785,0,0,0-.879-.68h0a.785.785,0,0,0-.68.879V826c.077.543.174,1.088.284,1.615a.783.783,0,0,0,.767.622.737.737,0,0,0,.164-.017.785.785,0,0,0,.6-.931h0Z" transform="translate(-83.37 -799.132)" fill="#fff"/>
  <path id="Контур_24" data-name="Контур 24" d="M97.594,817.326c.441.254.879.528,1.3.809a.786.786,0,0,0,1.093-.212h0a.786.786,0,0,0-.212-1.093h0c-.456-.3-.923-.595-1.4-.864a.785.785,0,0,0-.792,1.356Z" transform="translate(-63.099 -812.873)" fill="#fff"/>
  <path id="Контур_25" data-name="Контур 25" d="M101.071,821.154c.207.46.4.938.58,1.414a.78.78,0,1,0,1.479-.5l-.012-.037c-.192-.515-.4-1.023-.622-1.518a.783.783,0,0,0-1.038-.393h0a.783.783,0,0,0-.393,1.038h0Z" transform="translate(-57.45 -806.638)" fill="#fff"/>
  <path id="Контур_26" data-name="Контур 26" d="M94.287,816.264c.5.05,1.013.119,1.518.207a.786.786,0,0,0,.916-.627v0a.784.784,0,0,0-.625-.916h-.027c-.538-.092-1.088-.167-1.628-.222a.785.785,0,0,0-.859.7v.005a.783.783,0,0,0,.7.859l0,0Z" transform="translate(-68.492 -814.604)" fill="#fff"/>
  <path id="Контур_27" data-name="Контур 27" d="M92.475,816.339a.519.519,0,0,0,.087,0c.508-.055,1.021-.092,1.528-.109a.784.784,0,0,0,.759-.809v0h0a.8.8,0,0,0-.814-.757c-.543.02-1.1.06-1.64.117a.786.786,0,1,0,.082,1.571Z" transform="translate(-71.364 -814.661)" fill="#fff"/>
  <path id="Контур_28" data-name="Контур 28" d="M95.968,816.614c.485.157.973.331,1.446.52a.782.782,0,0,0,1.028-.416h0a.784.784,0,0,0-.416-1.03h0l-.03-.012c-.505-.2-1.026-.393-1.548-.558a.785.785,0,0,0-.48,1.491Z" transform="translate(-65.678 -814.017)" fill="#fff"/>
  <path id="Контур_29" data-name="Контур 29" d="M90.585,816.938a.819.819,0,0,0,.246-.04c.48-.157.976-.3,1.474-.423a.785.785,0,0,0-.388-1.521h0c-.533.135-1.063.284-1.578.458a.786.786,0,0,0-.505.988l0,0A.785.785,0,0,0,90.585,816.938Z" transform="translate(-74.125 -814.26)" fill="#fff"/>
  <path id="Контур_30" data-name="Контур 30" d="M85.071,825.51q0-.75.05-1.489a.786.786,0,0,0-.732-.836h0a.773.773,0,0,0-.834.709v.022c-.035.525-.055,1.06-.055,1.568v.067a.765.765,0,0,0,.769.762h.017A.808.808,0,0,0,85.071,825.51Z" transform="translate(-83.5 -801.972)" fill="#fff"/>
  <path id="Контур_31" data-name="Контур 31" d="M96.944,832.544c-.488.159-.991.3-1.474.426a.787.787,0,0,0-.58.946v0a.788.788,0,0,0,.948.58h.01c.525-.132,1.058-.284,1.581-.453a.786.786,0,0,0,.545-.969v0a.787.787,0,0,0-.968-.542h0l-.062.02Z" transform="translate(-66.57 -788.093)" fill="#fff"/>
  <path id="Контур_32" data-name="Контур 32" d="M99.779,830.78c-.378.341-.774.672-1.18.991a.784.784,0,0,0-.172,1.1v0a.787.787,0,0,0,1.1.172h0l.042-.032c.426-.336.849-.692,1.257-1.058a.786.786,0,0,0,0-1.11h0a.787.787,0,0,0-1.04-.057Z" transform="translate(-61.496 -790.907)" fill="#fff"/>
  <path id="Контур_33" data-name="Контур 33" d="M98.464,831.823c-.443.256-.9.5-1.354.722a.789.789,0,0,0-.366,1.05h0a.784.784,0,0,0,1.05.363c.49-.236.978-.5,1.449-.771a.785.785,0,0,0,.256-1.08h0a.784.784,0,0,0-1.04-.284Z" transform="translate(-63.893 -789.244)" fill="#fff"/>
  <path id="Контур_34" data-name="Контур 34" d="M100.794,829.513c-.3.408-.615.816-.943,1.209a.785.785,0,0,0,.08,1.108h0a.787.787,0,0,0,1.108-.077h0l.017-.022c.353-.423.694-.856,1.011-1.294a.784.784,0,1,0-1.242-.958l-.022.03Z" transform="translate(-59.437 -793.052)" fill="#fff"/>
  <path id="Контур_35" data-name="Контур 35" d="M102.617,823.764a.784.784,0,0,0-.784.784v.095c0,.51-.017,1.028-.052,1.533a.786.786,0,0,0,.727.839h.055a.787.787,0,0,0,.787-.732c.032-.54.052-1.09.052-1.64v-.095A.784.784,0,0,0,102.617,823.764Z" transform="translate(-56.28 -801.106)" fill="#fff"/>
  <path id="Контур_36" data-name="Контур 36" d="M102.779,825.72a.784.784,0,0,0-.928.607c-.1.5-.229.991-.371,1.493a.781.781,0,0,0,.54.968.712.712,0,0,0,.217.032.788.788,0,0,0,.757-.565c.152-.53.284-1.065.393-1.6a.787.787,0,0,0-.6-.934h0Z" transform="translate(-56.772 -798.218)" fill="#fff"/>
  <path id="Контур_37" data-name="Контур 37" d="M102.535,827.591a.783.783,0,0,0-1.035.4v0c-.207.46-.433.926-.677,1.379a.786.786,0,0,0,.326,1.061h0a.736.736,0,0,0,.368.092.781.781,0,0,0,.694-.416c.259-.485.5-.981.722-1.479a.784.784,0,0,0-.4-1.035Z" transform="translate(-57.84 -795.509)" fill="#fff"/>
  <path id="Контур_38" data-name="Контур 38" d="M86.341,829.021a.786.786,0,0,0-1.088-.224h0a.787.787,0,0,0-.241,1.061c.284.463.6.921.921,1.361a.782.782,0,0,0,1.093.187h0a.788.788,0,0,0,.189-1.1h0l-.012-.017c-.3-.413-.59-.839-.861-1.274Z" transform="translate(-81.415 -793.803)" fill="#fff"/>
  <path id="Контур_39" data-name="Контур 39" d="M90.068,832.342c-.438-.254-.879-.528-1.3-.812a.784.784,0,0,0-1.09.212h0a.788.788,0,0,0,.212,1.09h0c.456.306.926.6,1.4.871a.782.782,0,0,0,1.073-.281h0a.787.787,0,0,0-.281-1.075h-.01Z" transform="translate(-77.481 -789.743)" fill="#fff"/>
  <path id="Контур_40" data-name="Контур 40" d="M87.425,830.4a.786.786,0,0,0-1.11-.01h0a.784.784,0,0,0-.02,1.1c.381.393.779.776,1.185,1.14a.785.785,0,0,0,1.108-.08h0a.785.785,0,0,0-.057-1.088C88.152,831.128,87.786,830.769,87.425,830.4Z" transform="translate(-79.661 -791.568)" fill="#fff"/>
  <path id="Контур_41" data-name="Контур 41" d="M86.155,828.88c-.209-.465-.4-.943-.577-1.414a.785.785,0,1,0-1.474.54h0c.187.51.393,1.02.617,1.521a.786.786,0,0,0,1.5-.321A.816.816,0,0,0,86.155,828.88Z" transform="translate(-82.673 -796.362)" fill="#fff"/>
  <path id="Контур_42" data-name="Контур 42" d="M95.276,832.905c-.508.055-1.021.09-1.528.107a.783.783,0,0,0-.774.8h0a.788.788,0,0,0,.8.774H93.8c.543-.02,1.093-.057,1.638-.115a.786.786,0,0,0,.694-.866v0a.785.785,0,0,0-.859-.694Z" transform="translate(-69.394 -787.499)" fill="#fff"/>
  <path id="Контур_43" data-name="Контур 43" d="M93.51,833.037c-.5-.052-1.016-.122-1.521-.209a.782.782,0,0,0-.906.64v0a.786.786,0,0,0,.637.908h0c.543.092,1.088.167,1.628.222a.407.407,0,0,0,.077,0,.785.785,0,1,0,.08-1.568Z" transform="translate(-72.226 -787.626)" fill="#fff"/>
  <path id="Контур_44" data-name="Контур 44" d="M91.76,832.874c-.485-.157-.971-.331-1.444-.523a.783.783,0,0,0-1.026.421l0,0a.786.786,0,0,0,.423,1.028h0l.022.01c.505.2,1.028.393,1.548.565a.873.873,0,0,0,.241.04.79.79,0,0,0,.234-1.543Z" transform="translate(-74.971 -788.409)" fill="#fff"/>
  <path id="Контур_45" data-name="Контур 45" d="M93.18,829.675h4.6a22.641,22.641,0,0,0,.734-5.342H93.18Z" transform="translate(-69.085 -800.258)" fill="#fff"/>
  <path id="Контур_46" data-name="Контур 46" d="M93.18,832.193c1.75-.346,3.3-2.377,4.276-5.287H93.18Z" transform="translate(-69.085 -796.427)" fill="#fff"/>
  <path id="Контур_47" data-name="Контур 47" d="M96.98,826.907a11.925,11.925,0,0,1-2.708,4.9,12.326,12.326,0,0,0,6.875-4.9Z" transform="translate(-67.459 -796.425)" fill="#fff"/>
  <path id="Контур_48" data-name="Контур 48" d="M101.494,824.333H96.157a24.152,24.152,0,0,1-.677,5.342h4.528A12.228,12.228,0,0,0,101.494,824.333Z" transform="translate(-65.66 -800.258)" fill="#fff"/>
  <path id="Контур_49" data-name="Контур 49" d="M94.272,819.36a11.9,11.9,0,0,1,2.708,4.9h4.167A12.31,12.31,0,0,0,94.272,819.36Z" transform="translate(-67.459 -807.664)" fill="#fff"/>
  <path id="Контур_50" data-name="Контур 50" d="M93.18,827.1h5.334a22.644,22.644,0,0,0-.734-5.342h-4.6Z" transform="translate(-69.085 -804.094)" fill="#fff"/>
  <path id="Контур_51" data-name="Контур 51" d="M101.494,827.1a12.228,12.228,0,0,0-1.486-5.342H95.48a24.154,24.154,0,0,1,.677,5.342Z" transform="translate(-65.66 -804.094)" fill="#fff"/>
  <path id="Контур_52" data-name="Контур 52" d="M93.18,819.2v5.287h4.276C96.483,821.584,94.93,819.552,93.18,819.2Z" transform="translate(-69.085 -807.896)" fill="#fff"/>
  <path id="Контур_53" data-name="Контур 53" d="M95.942,824.333H90.608a22.772,22.772,0,0,0,.734,5.342h4.6Z" transform="translate(-72.915 -800.258)" fill="#fff"/>
  <path id="Контур_54" data-name="Контур 54" d="M95.942,821.757h-4.6a22.775,22.775,0,0,0-.734,5.342h5.334Z" transform="translate(-72.915 -804.094)" fill="#fff"/>
  <path id="Контур_55" data-name="Контур 55" d="M95.309,832.193v-5.287H91.033C92.006,829.816,93.559,831.847,95.309,832.193Z" transform="translate(-72.283 -796.427)" fill="#fff"/>
  <path id="Контур_56" data-name="Контур 56" d="M95.309,819.2c-1.747.349-3.3,2.377-4.276,5.287h4.276Z" transform="translate(-72.283 -807.896)" fill="#fff"/>
  <path id="Контур_57" data-name="Контур 57" d="M88.036,827.1H93.37a24.154,24.154,0,0,1,.677-5.342H89.52A12.192,12.192,0,0,0,88.036,827.1Z" transform="translate(-76.745 -804.094)" fill="#fff"/>
  <path id="Контур_58" data-name="Контур 58" d="M95.772,819.36a12.31,12.31,0,0,0-6.875,4.9h4.167A11.9,11.9,0,0,1,95.772,819.36Z" transform="translate(-75.463 -807.664)" fill="#fff"/>
  <path id="Контур_59" data-name="Контур 59" d="M94.047,829.675a24.152,24.152,0,0,1-.677-5.342H88.036a12.192,12.192,0,0,0,1.484,5.342Z" transform="translate(-76.745 -800.258)" fill="#fff"/>
  <path id="Контур_60" data-name="Контур 60" d="M95.772,831.808a11.925,11.925,0,0,1-2.708-4.9H88.9A12.326,12.326,0,0,0,95.772,831.808Z" transform="translate(-75.463 -796.425)" fill="#fff"/>
</svg>
