<svg xmlns="http://www.w3.org/2000/svg" width="30" height="30" viewBox="0 0 30 30">
  <g id="settings" transform="translate(0 0)">
    <g id="Сгруппировать_639" data-name="Сгруппировать 639" transform="translate(0 0)">
      <path id="Контур_505" data-name="Контур 505" d="M21.835,16.566,19.82,18.582h0L5.9,4.66l1.07-1.07L2.531.014,0,2.545,3.576,6.982l1.07-1.07L18.568,19.834l-2.015,2.015,2.874,2.874,5.283-5.283Z" transform="translate(0 -0.014)" fill="#fdc730"/>
      <path id="Контур_506" data-name="Контур 506" d="M355.566,350.3l-5.283,5.283,3.17,3.17a3.736,3.736,0,0,0,5.283-5.283Z" transform="translate(-329.831 -329.845)" fill="#fdc730"/>
    </g>
    <path id="Контур_507" data-name="Контур 507" d="M15.3,257.012l-4.126-4.126L8.15,255.906a6.28,6.28,0,1,0,4.126,4.126Zm-7.58,6.328a2.032,2.032,0,1,1,0-2.874A2.032,2.032,0,0,1,7.718,263.339Z" transform="translate(0 -238.183)" fill="#fdc730"/>
    <g id="Сгруппировать_640" data-name="Сгруппировать 640" transform="translate(14.702 -0.001)">
      <path id="Контур_508" data-name="Контур 508" d="M267.759,3.787l-.494-1.26L264.1,5.7l-1.279-.343-.343-1.279L265.644.905l-1.26-.494a5.967,5.967,0,0,0-7.922,7.172l-3.588,3.588L257,15.3l3.588-3.588a5.967,5.967,0,0,0,7.172-7.922Z" transform="translate(-252.873 0.001)" fill="#fdc730"/>
    </g>
  </g>
</svg>
