<svg xmlns="http://www.w3.org/2000/svg" width="29.999" height="30" viewBox="0 0 29.999 30">
  <g id="telephone" transform="translate(-0.006)">
    <g id="Сгруппировать_502" data-name="Сгруппировать 502" transform="translate(0.006)">
      <path id="Контур_437" data-name="Контур 437" d="M22.7,63.016a2.091,2.091,0,0,0-3.161,0c-.739.733-1.478,1.466-2.2,2.211a.436.436,0,0,1-.609.112c-.478-.261-.987-.472-1.447-.758A22.928,22.928,0,0,1,9.747,59.55a13.1,13.1,0,0,1-1.981-3.174.455.455,0,0,1,.112-.584c.739-.714,1.459-1.447,2.186-2.18a2.1,2.1,0,0,0-.006-3.236c-.578-.584-1.155-1.155-1.733-1.739-.6-.6-1.186-1.2-1.789-1.789a2.1,2.1,0,0,0-3.161.006c-.745.733-1.459,1.484-2.217,2.2a3.6,3.6,0,0,0-1.13,2.428,10.288,10.288,0,0,0,.795,4.428A26.908,26.908,0,0,0,5.6,63.873a29.555,29.555,0,0,0,9.788,7.658,14.156,14.156,0,0,0,5.422,1.577,3.973,3.973,0,0,0,3.41-1.3c.633-.708,1.348-1.354,2.018-2.031a2.113,2.113,0,0,0,.012-3.217Q24.479,64.782,22.7,63.016Z" transform="translate(-0.006 -43.118)" fill="#fdc730"/>
      <path id="Контур_438" data-name="Контур 438" d="M244.949,105.307l2.415-.412A10.841,10.841,0,0,0,238.194,96l-.34,2.428a8.378,8.378,0,0,1,7.095,6.879Z" transform="translate(-223.318 -90.129)" fill="#fdc730"/>
      <path id="Контур_439" data-name="Контур 439" d="M253.3,5.092A17.808,17.808,0,0,0,243.094,0l-.34,2.428A15.539,15.539,0,0,1,255.9,15.171l2.415-.412A17.939,17.939,0,0,0,253.3,5.092Z" transform="translate(-228.319)" fill="#fdc730"/>
    </g>
  </g>
</svg>
