<svg xmlns="http://www.w3.org/2000/svg" width="31.071" height="30" viewBox="0 0 31.071 30">
  <g id="toys" transform="translate(-24.021 -32.014)">
    <path id="Контур_452" data-name="Контур 452" d="M342.376,238.376V232H336v4.782a8.648,8.648,0,0,1,.4,1.594Zm-3.188-5.313a2.125,2.125,0,1,1-2.125,2.125A2.125,2.125,0,0,1,339.188,233.063Z" transform="translate(-291.003 -186.564)" fill="#fdc730"/>
    <path id="Контур_453" data-name="Контур 453" d="M71.348,69.814a7.613,7.613,0,0,0,5.483-2.026,7.069,7.069,0,0,0,0-9.762,8.432,8.432,0,0,0-10.966,0,7.069,7.069,0,0,0,0,9.762A7.613,7.613,0,0,0,71.348,69.814Zm3.188-8.5a.531.531,0,1,1-.531.531A.531.531,0,0,1,74.536,61.313Zm-6.376,0a.531.531,0,1,1-.531.531A.531.531,0,0,1,68.16,61.313Zm-.531,2.922a.531.531,0,0,1,.531.531c0,1.183,1.151,2.167,2.657,2.357V65.437a1.194,1.194,0,0,1-.161-.1l-.9-.644a1.287,1.287,0,0,1-.531-1.049,1.25,1.25,0,0,1,1.223-1.272h1.8a1.25,1.25,0,0,1,1.223,1.272,1.287,1.287,0,0,1-.531,1.049l-.9.643a1.2,1.2,0,0,1-.161.1v1.686c1.506-.19,2.657-1.174,2.657-2.357a.531.531,0,0,1,1.063,0c0,1.9-1.907,3.454-4.25,3.454s-4.25-1.549-4.25-3.454A.531.531,0,0,1,67.629,64.235Z" transform="translate(-37.24 -22.393)" fill="#fdc730"/>
    <circle id="Эллипс_1" data-name="Эллипс 1" cx="1.063" cy="1.063" r="1.063" transform="translate(47.07 47.559)" fill="#fdc730"/>
    <path id="Контур_454" data-name="Контур 454" d="M161.047,169.037l.9-.643a.226.226,0,0,0,.086-.184.193.193,0,0,0-.161-.21h-1.8a.193.193,0,0,0-.161.21.226.226,0,0,0,.086.184l.9.643A.123.123,0,0,0,161.047,169.037Z" transform="translate(-126.782 -126.877)" fill="#fdc730"/>
    <path id="Контур_455" data-name="Контур 455" d="M233.487,250.935a9.245,9.245,0,0,1,2.015,5.551,4.107,4.107,0,0,1,2.6,1.5,2.129,2.129,0,0,0,1.647-1.9l-.048-.681a6.985,6.985,0,0,0-4.154-5.762A7.766,7.766,0,0,1,233.487,250.935Z" transform="translate(-195.409 -203.017)" fill="#fdc730"/>
    <path id="Контур_456" data-name="Контур 456" d="M240.611,36.964a2.657,2.657,0,1,0-3.662-3.586,7.685,7.685,0,0,1,2.174,1.5,7.416,7.416,0,0,1,1.488,2.088Z" transform="translate(-198.646 -0.001)" fill="#fdc730"/>
    <path id="Контур_457" data-name="Контур 457" d="M346.064,157.95l-2.7,3.855h5.4Z" transform="translate(-297.879 -117.492)" fill="#fdc730"/>
    <path id="Контур_458" data-name="Контур 458" d="M44.9,33.378a2.657,2.657,0,1,0-3.662,3.586,7.414,7.414,0,0,1,1.488-2.088A7.683,7.683,0,0,1,44.9,33.378Z" transform="translate(-14.845 0)" fill="#fdc730"/>
    <ellipse id="Эллипс_2" data-name="Эллипс 2" cx="3.188" cy="3.719" rx="3.188" ry="3.719" transform="translate(36.368 54.575)" fill="#fdc730"/>
    <path id="Контур_459" data-name="Контур 459" d="M314.132,378.125V376h-.821a3.208,3.208,0,0,1-1.3.877,5.124,5.124,0,0,1,.424,1.248Z" transform="translate(-268.689 -320.936)" fill="#fdc730"/>
    <path id="Контур_460" data-name="Контур 460" d="M113.727,279.871a7.913,7.913,0,0,0-2.045-5.174,10.761,10.761,0,0,1-5.452,0,7.949,7.949,0,0,0-2.042,5.172,4.632,4.632,0,0,1,3.707,4.741,5.229,5.229,0,0,1-.51,2.269,3.387,3.387,0,0,0,3.145,0,5.229,5.229,0,0,1-.51-2.269A4.632,4.632,0,0,1,113.727,279.871Z" transform="translate(-74.779 -226.318)" fill="#fdc730"/>
    <ellipse id="Эллипс_3" data-name="Эллипс 3" cx="3.188" cy="3.719" rx="3.188" ry="3.719" transform="translate(25.614 54.575)" fill="#fdc730"/>
    <path id="Контур_461" data-name="Контур 461" d="M392,350.376h6.376V344H392Zm1.119-1.832,1.594-3.188a.531.531,0,0,1,.95,0l1.594,3.188a.531.531,0,0,1-.475.769h-3.188a.531.531,0,0,1-.475-.769Z" transform="translate(-343.284 -291.019)" fill="#fdc730"/>
    <path id="Контур_462" data-name="Контур 462" d="M28.281,256.486a9.283,9.283,0,0,1,2.013-5.547,7.767,7.767,0,0,1-2.072-1.287,6.985,6.985,0,0,0-4.154,5.761l-.048.681a2.129,2.129,0,0,0,1.657,1.9A4.109,4.109,0,0,1,28.281,256.486Z" transform="translate(0 -203.017)" fill="#fdc730"/>
    <path id="Контур_463" data-name="Контур 463" d="M429.678,385.889l-.734,1.468h1.469Z" transform="translate(-377.774 -330.168)" fill="#fdc730"/>
    <path id="Контур_464" data-name="Контур 464" d="M320.075,344.14a.526.526,0,0,1,0,.072,3.164,3.164,0,0,1-.176.85h.72a.531.531,0,0,1,.531.531v3.188a.531.531,0,0,1-.531.531h-2.125a5.338,5.338,0,0,1-.107,1.063h3.826V344h-2.148Z" transform="translate(-274.63 -291.019)" fill="#fdc730"/>
  </g>
</svg>
