<svg xmlns="http://www.w3.org/2000/svg" width="39.126" height="30" viewBox="0 0 39.126 30">
  <g id="wifi" transform="translate(0 -59.713)">
    <g id="Сгруппировать_494" data-name="Сгруппировать 494" transform="translate(16.07 82.726)">
      <g id="Сгруппировать_493" data-name="Сгруппировать 493" transform="translate(0 0)">
        <path id="Контур_433" data-name="Контур 433" d="M214.2,361.693a3.493,3.493,0,1,0,3.493,3.493A3.5,3.5,0,0,0,214.2,361.693Z" transform="translate(-210.703 -361.693)" fill="#fdc730"/>
      </g>
    </g>
    <g id="Сгруппировать_496" data-name="Сгруппировать 496" transform="translate(10.827 75.047)">
      <g id="Сгруппировать_495" data-name="Сгруппировать 495" transform="translate(0 0)">
        <path id="Контур_434" data-name="Контур 434" d="M151.456,261.033a11.239,11.239,0,0,0-8.736,4.167l3.8,3.8a6.435,6.435,0,0,1,4.94-2.526A6.593,6.593,0,0,1,156.4,269l3.8-3.8A11.239,11.239,0,0,0,151.456,261.033Z" transform="translate(-142.72 -261.033)" fill="#fdc730"/>
      </g>
    </g>
    <g id="Сгруппировать_498" data-name="Сгруппировать 498" transform="translate(0 59.713)">
      <g id="Сгруппировать_497" data-name="Сгруппировать 497" transform="translate(0 0)">
        <path id="Контур_435" data-name="Контур 435" d="M19.563,59.713A26.442,26.442,0,0,0,0,68.4l3.819,3.854a20.994,20.994,0,0,1,31.488,0L39.126,68.4A26.483,26.483,0,0,0,19.563,59.713Z" transform="translate(0 -59.713)" fill="#fdc730"/>
      </g>
    </g>
    <g id="Сгруппировать_500" data-name="Сгруппировать 500" transform="translate(5.503 67.369)">
      <g id="Сгруппировать_499" data-name="Сгруппировать 499" transform="translate(0 0)">
        <path id="Контур_436" data-name="Контур 436" d="M85.417,160.373a18.638,18.638,0,0,0-14.06,6.426l3.8,3.85a13.287,13.287,0,0,1,20.517,0l3.8-3.85A18.638,18.638,0,0,0,85.417,160.373Z" transform="translate(-71.357 -160.373)" fill="#fdc730"/>
      </g>
    </g>
  </g>
</svg>
